<svg id="Layer_1" data-name="Layer 1" xmlns="http://www.w3.org/2000/svg" viewBox="0 0 923.72 150"><title>Artboard 1 copy 3</title><path d="M186.31,93.07c.78,6.67,7.73,11,16.7,11s15.18-4.31,15.18-10.25c0-5.27-3.87-8.18-13.62-10.37L194,81.19c-14.9-3.19-22.24-10.76-22.24-22.58,0-14.9,12.89-24.77,30.93-24.77,18.83,0,30.65,9.69,30.93,24.32H217.8c-.56-6.84-6.56-11-15-11s-14,4-14,10c0,5,3.92,7.79,13.22,9.92l9.81,2.07c16.19,3.47,23.25,10.42,23.25,22.75,0,15.69-12.72,25.61-32.78,25.61-19.44,0-31.83-9.25-32.33-24.43Z" style="fill:#fff"/><path d="M281.89,78.39c-.84-6.28-5.15-10.59-11.93-10.59-8,0-13.06,6.84-13.06,18.21,0,11.6,5,18.32,13.11,18.32,6.61,0,10.93-3.7,11.88-10.25h15.24c-.9,14.12-11.37,23.08-27.29,23.08-18,0-29.53-11.77-29.53-31.15,0-19.05,11.49-31,29.42-31,16.25,0,26.62,9.86,27.34,23.42Z" style="fill:#fff"/><path d="M303.81,56h15.8V66.85h.34C322,59.4,327.17,55.3,334.23,55.3a15.06,15.06,0,0,1,4.65.62v14.4a16.84,16.84,0,0,0-5.94-1c-8.07,0-12.78,4.93-12.78,13.39V116.1H303.81Z" style="fill:#fff"/><path d="M398.33,97.72c-1.79,11.71-12.66,19.44-27.4,19.44-18.38,0-29.59-11.71-29.59-30.82S352.61,55,370.32,55c17.43,0,28.52,11.6,28.52,29.86v5H357.43v1c0,8.46,5.55,14.23,13.78,14.23,5.88,0,10.59-2.8,12.1-7.34ZM357.6,79.79h25.49c-.34-7.68-5.38-12.72-12.61-12.72S358.16,72.28,357.6,79.79Z" style="fill:#fff"/><path d="M472,116.1H454.56L443.69,73.63h-.34L432.54,116.1h-17.2L399.37,56h16.47l9.08,44.54h.34L435.9,56h15.69l10.7,44.54h.34L471.76,56H487.9Z" style="fill:#fff"/><path d="M487.44,86c0-18.83,9.64-30.65,24.6-30.65,8.69,0,15.35,4.37,18.32,11h.34V35.25h16.36V116.1H530.92V105.79h-.28c-2.91,6.61-9.86,11-18.71,11C497,116.83,487.44,104.95,487.44,86Zm16.75.11c0,10.81,5.15,17.59,13.28,17.59s13.34-6.84,13.34-17.59-5.21-17.59-13.34-17.59S504.19,75.31,504.19,86.07Z" style="fill:#fff"/><path d="M555.69,56h15.8V66.85h.34c2.07-7.45,7.23-11.54,14.29-11.54a15.06,15.06,0,0,1,4.65.62v14.4a16.84,16.84,0,0,0-5.94-1c-8.07,0-12.78,4.93-12.78,13.39V116.1H555.69Z" style="fill:#fff"/><path d="M596.08,41a8.75,8.75,0,1,1,8.74,8.46A8.48,8.48,0,0,1,596.08,41ZM596.64,56H613V116.1H596.64Z" style="fill:#fff"/><path d="M657.66,116.1H639.17L618.38,56h17.54l12.5,45.61h.34L661.19,56h17.09Z" style="fill:#fff"/><path d="M733.57,97.72c-1.79,11.71-12.66,19.44-27.4,19.44-18.38,0-29.59-11.71-29.59-30.82S687.85,55,705.55,55c17.43,0,28.52,11.6,28.52,29.86v5H692.67v1c0,8.46,5.55,14.23,13.78,14.23,5.88,0,10.59-2.8,12.1-7.34ZM692.83,79.79h25.49c-.34-7.68-5.38-12.72-12.61-12.72S693.39,72.28,692.83,79.79Z" style="fill:#fff"/><path d="M741.18,56H757V66.85h.34c2.07-7.45,7.23-11.54,14.29-11.54a15.06,15.06,0,0,1,4.65.62v14.4a16.84,16.84,0,0,0-5.94-1c-8.07,0-12.78,4.93-12.78,13.39V116.1H741.18Z" style="fill:#fff"/><path d="M774.09,107.75a9,9,0,1,1,9,9A8.94,8.94,0,0,1,774.09,107.75Z" style="fill:#fff"/><path d="M838.79,78.39c-.84-6.28-5.15-10.59-11.93-10.59-8,0-13.06,6.84-13.06,18.21,0,11.6,5,18.32,13.11,18.32,6.61,0,10.93-3.7,11.88-10.25H854c-.9,14.12-11.38,23.08-27.29,23.08-18,0-29.53-11.77-29.53-31.15,0-19.05,11.49-31,29.42-31,16.25,0,26.62,9.86,27.34,23.42Z" style="fill:#fff"/><path d="M858.1,86c0-18.83,9.64-30.65,24.6-30.65,8.68,0,15.35,4.37,18.32,11h.34V35.25h16.36V116.1H901.58V105.79h-.28c-2.91,6.61-9.86,11-18.72,11C867.68,116.83,858.1,104.95,858.1,86Zm16.75.11c0,10.81,5.15,17.59,13.28,17.59s13.34-6.84,13.34-17.59-5.21-17.59-13.34-17.59S874.86,75.31,874.86,86.07Z" style="fill:#fff"/><path d="M113,47.73a58.42,58.42,0,0,1,.52,7.63V71.52a29.84,29.84,0,1,1-42,42,29.87,29.87,0,0,1-4.61-7.78,29.69,29.69,0,0,1-2.16-11.1V64.76H77.47V55.37a21.9,21.9,0,0,0-1.6-8.2,22.58,22.58,0,0,0-1.42-2.9H44.27V94.63a50.41,50.41,0,0,0,1,10.08q.43,2.12,1,4.18c.43,1.45.93,2.88,1.48,4.27A50.36,50.36,0,1,0,113,47.73Z" style="fill:#fff"/><path d="M104.72,45.28q-.43-2.12-1-4.18c-.43-1.45-.93-2.88-1.48-4.27A50.36,50.36,0,1,0,37,102.27a58.44,58.44,0,0,1-.52-7.63V78.48A29.83,29.83,0,1,1,85.24,55.37V85.24H72.53v9.39a21.89,21.89,0,0,0,1.6,8.2,22.58,22.58,0,0,0,1.42,2.9h30.17V55.37A50.41,50.41,0,0,0,104.72,45.28Z" style="fill:#fff"/></svg>